<mxfile host="app.diagrams.net" modified="2023-10-05T12:06:59.047Z" agent="Mozilla/5.0 (Macintosh; Intel Mac OS X 10_15_7) AppleWebKit/537.36 (KHTML, like Gecko) Chrome/117.0.0.0 Safari/537.36" version="22.0.2" etag="2aAzGDon3haVslqd6cpq" type="github">
  <diagram name="페이지-1" id="ShNeZWL_oWN-Rcldb1Wv">
    <mxGraphModel>
      <root>
        <mxCell id="0" />
        <mxCell id="1" parent="0" />
      </root>
    </mxGraphModel>
  </diagram>
</mxfile>
